<?xml version="1.0" encoding="utf-8"?><svg viewBox="0 0 800 800" xmlns="http://www.w3.org/2000/svg" xmlns:xlink="http://www.w3.org/1999/xlink"><style>:root>svg{display:none}:root>svg:target{display:block}</style><svg viewBox="0 0 72 72" fill="none" id="advantages--1" xmlns="http://www.w3.org/2000/svg"><g clip-path="url(#ba)"><g clip-path="url(#bb)"><g clip-path="url(#bc)"><path d="M69.75 54h-63V18a4.5 4.5 0 0 1 4.5-4.5h54a4.5 4.5 0 0 1 4.5 4.5v36Z" fill="#353744"/></g><g clip-path="url(#bd)"><path d="M69.75 54h-63v2.25a4.5 4.5 0 0 0 4.5 4.5h54a4.5 4.5 0 0 0 4.5-4.5V54Z" fill="gray"/></g><g clip-path="url(#be)"><path d="M65.25 54H6.75V18a4.5 4.5 0 0 1 4.5-4.5h49.5a4.5 4.5 0 0 1 4.5 4.5v36Z" fill="#55525B"/></g><g clip-path="url(#bf)"><path d="M65.25 54H6.75v2.25a4.5 4.5 0 0 0 4.5 4.5h49.5a4.5 4.5 0 0 0 4.5-4.5V54Z" fill="#DBDEE3"/></g><g clip-path="url(#bg)"><path d="M59.063 18H12.937c-.931 0-1.687.756-1.687 1.688v28.125c0 .931.756 1.687 1.688 1.687h46.124c.932 0 1.688-.756 1.688-1.688V19.689c0-.932-.756-1.688-1.688-1.688Z" fill="#FBBE18"/></g><g clip-path="url(#bh)"><path d="M18 27h24.75a2.25 2.25 0 1 0 0-4.5H18a2.25 2.25 0 1 0 0 4.5Z" fill="#F68820"/></g><g clip-path="url(#bi)"><path d="M18 36h24.75a2.25 2.25 0 1 0 0-4.5H18a2.25 2.25 0 1 0 0 4.5Z" fill="#F68820"/></g><g clip-path="url(#bj)"><path d="M18 45h24.75a2.25 2.25 0 1 0 0-4.5H18a2.25 2.25 0 1 0 0 4.5Z" fill="#F68820"/></g><g clip-path="url(#bk)"><path d="M46.688 65.25h-4.5v-4.5h4.5v4.5Z" fill="gray"/></g><g clip-path="url(#bl)"><path d="M31.5 60.75h10.688v4.5H31.5v-4.5Z" fill="#B3B4B6"/></g><g clip-path="url(#bm)"><path d="M51.188 65.25H23.061a4.5 4.5 0 0 0-4.5 4.5h37.126a4.5 4.5 0 0 0-4.5-4.5Z" fill="#DBDEE3"/></g><g clip-path="url(#bn)"><path d="M51.188 65.25h-4.5a4.5 4.5 0 0 0-4.5 4.5h13.5a4.5 4.5 0 0 0-4.5-4.5Z" fill="gray"/></g><g clip-path="url(#bo)"><path d="M19.125 2.25H15.75c-7.455 0-13.5 6.045-13.5 13.5s6.045 13.5 13.5 13.5h3.375c7.455 0 13.5-6.045 13.5-13.5s-6.045-13.5-13.5-13.5Z" fill="#5C76B2"/></g><g clip-path="url(#bp)"><path d="M15.75 29.25c7.456 0 13.5-6.044 13.5-13.5s-6.044-13.5-13.5-13.5-13.5 6.044-13.5 13.5 6.044 13.5 13.5 13.5Z" fill="#6FA4D8"/></g><g clip-path="url(#bq)"><path d="M15.75 27C21.963 27 27 21.963 27 15.75S21.963 4.5 15.75 4.5 4.5 9.537 4.5 15.75 9.537 27 15.75 27Z" fill="#55525B"/></g><g clip-path="url(#br)"><path d="M15.75 16.313a.563.563 0 0 1-.563-.563v-9a.563.563 0 0 1 1.126 0v9c0 .31-.252.563-.563.563Z" fill="#6FA4D8"/></g><g clip-path="url(#bs)"><path d="M10.977 21.086a.563.563 0 0 1-.398-.96l4.772-4.773a.563.563 0 0 1 .795.795l-4.772 4.774a.56.56 0 0 1-.397.164Z" fill="#6FA4D8"/></g><g clip-path="url(#bt)"><path d="M15.75 18a2.25 2.25 0 1 0 0-4.5 2.25 2.25 0 0 0 0 4.5Z" fill="#F68820"/></g><g clip-path="url(#bu)"><path d="M15.75 16.875a1.125 1.125 0 1 0 0-2.25 1.125 1.125 0 0 0 0 2.25Z" fill="#DBDEE3"/></g><g clip-path="url(#bv)"><path d="M7.875 16.313H6.75a.563.563 0 0 1 0-1.125h1.125a.563.563 0 0 1 0 1.124Z" fill="#F68820"/></g><g clip-path="url(#bw)"><path d="M15.75 25.313a.563.563 0 0 1-.563-.563v-1.125a.563.563 0 0 1 1.126 0v1.125c0 .31-.252.563-.563.563Z" fill="#F68820"/></g><g clip-path="url(#bx)"><path d="M24.75 16.313h-1.125a.563.563 0 0 1 0-1.125h1.125a.563.563 0 0 1 0 1.124Z" fill="#F68820"/></g><g clip-path="url(#by)"><path d="M52.875 45a2.25 2.25 0 1 1-.001-4.499A2.25 2.25 0 0 1 52.875 45Z" fill="#F68820"/></g><g clip-path="url(#bz)"><path d="m52.031 23.344.844.844 2.531-2.532a1.194 1.194 0 0 1 1.688 1.688l-3.376 3.375a1.194 1.194 0 0 1-1.687 0l-1.688-1.688a1.194 1.194 0 0 1 1.688-1.687Z" fill="#5C76B2"/></g><g clip-path="url(#bA)"><path d="m52.031 32.344.844.844 2.531-2.532a1.194 1.194 0 0 1 1.688 1.688l-3.376 3.375a1.194 1.194 0 0 1-1.687 0l-1.688-1.688a1.194 1.194 0 0 1 1.688-1.687Z" fill="#5C76B2"/></g></g></g><defs><clipPath id="ba"><path fill="#fff" d="M0 0h72v72H0z"/></clipPath><clipPath id="bb"><path fill="#fff" transform="translate(2.25 2.25)" d="M0 0h67.5v67.5H0z"/></clipPath><clipPath id="bc"><path fill="#fff" transform="translate(6.75 13.5)" d="M0 0h63v40.5H0z"/></clipPath><clipPath id="bd"><path fill="#fff" transform="translate(6.75 54)" d="M0 0h63v6.75H0z"/></clipPath><clipPath id="be"><path fill="#fff" transform="translate(6.75 13.5)" d="M0 0h58.5v40.5H0z"/></clipPath><clipPath id="bf"><path fill="#fff" transform="translate(6.75 54)" d="M0 0h58.5v6.75H0z"/></clipPath><clipPath id="bg"><path fill="#fff" transform="translate(11.25 18)" d="M0 0h49.5v31.5H0z"/></clipPath><clipPath id="bh"><path fill="#fff" transform="translate(15.75 22.5)" d="M0 0h29.25v4.5H0z"/></clipPath><clipPath id="bi"><path fill="#fff" transform="translate(15.75 31.5)" d="M0 0h29.25v4.5H0z"/></clipPath><clipPath id="bj"><path fill="#fff" transform="translate(15.75 40.5)" d="M0 0h29.25v4.5H0z"/></clipPath><clipPath id="bk"><path fill="#fff" transform="translate(42.188 60.75)" d="M0 0h4.5v4.5H0z"/></clipPath><clipPath id="bl"><path fill="#fff" transform="translate(31.5 60.75)" d="M0 0h10.688v4.5H0z"/></clipPath><clipPath id="bm"><path fill="#fff" transform="translate(18.563 65.25)" d="M0 0h37.125v4.5H0z"/></clipPath><clipPath id="bn"><path fill="#fff" transform="translate(42.188 65.25)" d="M0 0h13.5v4.5H0z"/></clipPath><clipPath id="bo"><path fill="#fff" transform="translate(2.25 2.25)" d="M0 0h30.375v27H0z"/></clipPath><clipPath id="bp"><path fill="#fff" transform="translate(2.25 2.25)" d="M0 0h27v27H0z"/></clipPath><clipPath id="bq"><path fill="#fff" transform="translate(4.5 4.5)" d="M0 0h22.5v22.5H0z"/></clipPath><clipPath id="br"><path fill="#fff" transform="translate(15.188 6.188)" d="M0 0h1.125v10.125H0z"/></clipPath><clipPath id="bs"><path fill="#fff" transform="translate(10.414 15.188)" d="M0 0h5.897v5.898H0z"/></clipPath><clipPath id="bt"><path fill="#fff" transform="translate(13.5 13.5)" d="M0 0h4.5v4.5H0z"/></clipPath><clipPath id="bu"><path fill="#fff" transform="translate(14.625 14.625)" d="M0 0h2.25v2.25H0z"/></clipPath><clipPath id="bv"><path fill="#fff" transform="translate(6.188 15.188)" d="M0 0h2.25v1.125H0z"/></clipPath><clipPath id="bw"><path fill="#fff" transform="translate(15.188 23.063)" d="M0 0h1.125v2.25H0z"/></clipPath><clipPath id="bx"><path fill="#fff" transform="translate(23.063 15.188)" d="M0 0h2.25v1.125H0z"/></clipPath><clipPath id="by"><path fill="#fff" transform="translate(50.625 40.5)" d="M0 0h4.5v4.5H0z"/></clipPath><clipPath id="bz"><path fill="#fff" transform="translate(49.994 21.307)" d="M0 0h7.449v5.761H0z"/></clipPath><clipPath id="bA"><path fill="#fff" transform="translate(49.994 30.307)" d="M0 0h7.449v5.761H0z"/></clipPath></defs></svg><svg viewBox="0 0 72 72" fill="none" id="advantages--2" xmlns="http://www.w3.org/2000/svg"><g clip-path="url(#ca)"><g clip-path="url(#cb)"><path d="M40.533 24.454a4.5 4.5 0 1 0 0-9 4.5 4.5 0 0 0 0 9Z" fill="#F68820"/></g><path d="m64.833 65.854-19.8-26.4V20.517a2.25 2.25 0 0 0-4.5 0v18.937l-19.8 26.4a2.25 2.25 0 0 0 3.601 2.7l16.2-21.6v20.25a2.25 2.25 0 0 0 4.5 0v-20.25l16.2 21.6a2.25 2.25 0 1 0 3.6-2.7Z" fill="#55525B"/><g clip-path="url(#cc)"><path d="M36.03 53.704a4.501 4.501 0 0 1-3.597-7.201l6.75-9a4.501 4.501 0 0 1 7.2 5.401l-6.75 9a4.493 4.493 0 0 1-3.603 1.8Z" fill="#5C76B2"/></g><g clip-path="url(#cd)"><path d="M49.536 53.704a4.493 4.493 0 0 1-3.603-1.8l-6.75-9a4.5 4.5 0 1 1 7.2-5.401l6.75 9a4.502 4.502 0 0 1-3.597 7.201Z" fill="#5C76B2"/></g><g clip-path="url(#ce)"><g clip-path="url(#cf)"><path d="m63.796 13.496-4.431-.782a6.752 6.752 0 0 0-7.82 5.475 6.752 6.752 0 0 0 5.475 7.82l4.432.782a6.75 6.75 0 0 0 2.344-13.295Z" fill="#F68820"/></g><g clip-path="url(#cg)"><path d="M58.191 26.111a6.75 6.75 0 1 0 0-13.5 6.75 6.75 0 0 0 0 13.5Z" fill="#FBBE18"/></g><g clip-path="url(#ch)"><path d="M57.41 23.794 41.9 21.059l1.563-8.863 15.51 2.735a4.5 4.5 0 0 1-1.562 8.863Z" fill="#6FA4D8"/></g><g clip-path="url(#ci)"><path d="m41.9 21.058 15.51 2.735a4.5 4.5 0 0 0 5.214-3.65l-19.942-3.517-.782 4.432Z" fill="#5C76B2"/></g><g clip-path="url(#cj)"><path d="m37.077 22.492-15.51-2.734L23.91 6.462l15.51 2.735a6.75 6.75 0 0 1-2.344 13.296Z" fill="#6FA4D8"/></g><g clip-path="url(#ck)"><path d="m21.566 19.758 15.51 2.734a6.752 6.752 0 0 0 7.82-5.475L22.74 13.11l-1.173 6.648Z" fill="#5C76B2"/></g><g clip-path="url(#cl)"><path d="M20.26 1.25 15.83.468C9.71-.61 3.876 3.475 2.796 9.594c-1.08 6.12 3.007 11.953 9.126 13.033l4.431.782c6.12 1.08 11.954-3.007 13.033-9.126C30.466 8.163 26.38 2.33 20.26 1.25Z" fill="#F68820"/></g><g clip-path="url(#cm)"><path d="M13.875 22.797c6.213 0 11.25-5.036 11.25-11.25 0-6.213-5.037-11.25-11.25-11.25s-11.25 5.037-11.25 11.25c0 6.214 5.037 11.25 11.25 11.25Z" fill="#FBBE18"/></g><g clip-path="url(#cn)"><path d="M13.875 20.547a9 9 0 1 0 0-18 9 9 0 0 0 0 18Z" fill="#55525B"/></g><g clip-path="url(#co)"><path d="M12.747 2.617A9.018 9.018 0 0 0 5.87 7.433a4.497 4.497 0 0 0 3.575 3.334 4.5 4.5 0 0 0 5.214-3.65 4.496 4.496 0 0 0-1.91-4.5Z" fill="#B3B4B6"/></g></g><g clip-path="url(#cp)"><path d="M45.033 24.454a4.5 4.5 0 1 0 0-9 4.5 4.5 0 0 0 0 9Z" fill="#FBBE18"/></g><g clip-path="url(#cq)"><path d="M45.033 22.204a2.25 2.25 0 1 0 0-4.5 2.25 2.25 0 0 0 0 4.5Z" fill="#55525B"/></g><g clip-path="url(#cr)"><path d="M22.533 71.704a4.5 4.5 0 1 0 0-9 4.5 4.5 0 0 0 0 9Z" fill="#F68820"/></g><g clip-path="url(#cs)"><path d="M63.033 71.704a4.5 4.5 0 1 0 0-9 4.5 4.5 0 0 0 0 9Z" fill="#F68820"/></g><g clip-path="url(#ct)"><path d="M42.783 71.704a4.5 4.5 0 1 0 0-9 4.5 4.5 0 0 0 0 9Z" fill="#F68820"/></g><g clip-path="url(#cu)"><path d="M42.783 53.704a4.5 4.5 0 0 1-4.5-4.5v-9a4.5 4.5 0 0 1 9 0v9a4.5 4.5 0 0 1-4.5 4.5Z" fill="#F68820"/></g><g clip-path="url(#cv)"><path d="M42.783 53.704a4.5 4.5 0 0 1-4.5-4.5v-9a4.5 4.5 0 0 1 9 0v9a4.5 4.5 0 0 1-4.5 4.5Z" fill="#6FA4D8"/></g></g><defs><clipPath id="ca"><path fill="#fff" transform="translate(2.623 .295)" d="M0 0h66.751v71.409H0z"/></clipPath><clipPath id="cb"><path fill="#fff" transform="translate(36.033 15.454)" d="M0 0h9v9H0z"/></clipPath><clipPath id="cc"><path fill="#fff" transform="translate(31.533 35.704)" d="M0 0h15.751v18H0z"/></clipPath><clipPath id="cd"><path fill="#fff" transform="translate(38.283 35.703)" d="M0 0h15.75v18.001H0z"/></clipPath><clipPath id="ce"><path fill="#fff" transform="translate(2.623 .295)" d="M0 0h66.751v26.599H0z"/></clipPath><clipPath id="cf"><path fill="#fff" transform="translate(51.441 12.61)" d="M0 0h17.934v14.284H0z"/></clipPath><clipPath id="cg"><path fill="#fff" transform="translate(51.441 12.611)" d="M0 0h13.5v13.5H0z"/></clipPath><clipPath id="ch"><path fill="#fff" transform="translate(41.9 12.196)" d="M0 0h20.793v11.666H0z"/></clipPath><clipPath id="ci"><path fill="#fff" transform="translate(41.9 16.627)" d="M0 0h20.724v7.235H0z"/></clipPath><clipPath id="cj"><path fill="#fff" transform="translate(21.566 6.462)" d="M0 0h23.434v16.134H0z"/></clipPath><clipPath id="ck"><path fill="#fff" transform="translate(21.566 13.11)" d="M0 0h23.33v9.486H0z"/></clipPath><clipPath id="cl"><path fill="#fff" transform="translate(2.623 .295)" d="M0 0h26.936v23.287H0z"/></clipPath><clipPath id="cm"><path fill="#fff" transform="translate(2.625 .297)" d="M0 0h22.5v22.5H0z"/></clipPath><clipPath id="cn"><path fill="#fff" transform="translate(4.875 2.547)" d="M0 0h18v18H0z"/></clipPath><clipPath id="co"><path fill="#fff" transform="translate(5.87 2.617)" d="M0 0h8.857v8.219H0z"/></clipPath><clipPath id="cp"><path fill="#fff" transform="translate(40.533 15.454)" d="M0 0h9v9H0z"/></clipPath><clipPath id="cq"><path fill="#fff" transform="translate(42.783 17.704)" d="M0 0h4.5v4.5H0z"/></clipPath><clipPath id="cr"><path fill="#fff" transform="translate(18.033 62.704)" d="M0 0h9v9H0z"/></clipPath><clipPath id="cs"><path fill="#fff" transform="translate(58.533 62.704)" d="M0 0h9v9H0z"/></clipPath><clipPath id="ct"><path fill="#fff" transform="translate(38.283 62.704)" d="M0 0h9v9H0z"/></clipPath><clipPath id="cu"><path fill="#fff" transform="translate(38.283 35.704)" d="M0 0h9v18H0z"/></clipPath><clipPath id="cv"><path fill="#fff" transform="translate(38.283 35.704)" d="M0 0h9v18H0z"/></clipPath></defs></svg><svg viewBox="0 0 72 72" fill="none" id="advantages--3" xmlns="http://www.w3.org/2000/svg"><g clip-path="url(#da)"><g clip-path="url(#db)"><g clip-path="url(#dc)"><path d="M42.75 43.875v-11.25h-13.5v11.25l-16.2 21.6c-1.668 2.225-.08 5.4 2.7 5.4h40.5c2.781 0 4.368-3.175 2.7-5.4l-16.2-21.6Z" fill="#6FA4D8"/></g><g clip-path="url(#dd)"><path d="m58.95 65.475-16.2-21.6v-11.25h-13.5v2.813h5.063c.931 0 1.687.755 1.687 1.687v6.75l9 27h11.25c2.781 0 4.368-3.175 2.7-5.4Z" fill="#5C76B2"/></g><g clip-path="url(#de)"><path d="M42.75 32.625h-13.5a2.25 2.25 0 1 1 0-4.5h13.5a2.25 2.25 0 1 1 0 4.5Z" fill="#6FA4D8"/></g><g clip-path="url(#df)"><path d="M42.75 28.125H36a2.25 2.25 0 1 1 0 4.5h6.75a2.25 2.25 0 1 0 0-4.5Z" fill="#5C76B2"/></g><g clip-path="url(#dg)"><path d="M54 66.375H18l8.438-11.25v-.001c2.39-3.188 7.173-3.19 9.563-.002h.001c2.39 3.187 7.169 3.188 9.56.003L54 66.375Z" fill="#F68820"/></g><g clip-path="url(#dh)"><path d="m45.563 55.125-.002-.001c-2.39-3.188-7.172-3.19-9.562-.002h-.001c-2.39 3.187-7.169 3.188-9.56.003L18 66.375h36l-8.438-11.25Z" fill="#FBBE18"/></g><g clip-path="url(#di)"><path d="m45.563 55.125-.002-.001c-1.586-2.117-4.225-2.82-6.52-2.126l4.46 13.377H54l-8.438-11.25Z" fill="#F68820"/></g><g clip-path="url(#dj)"><path d="M32.063 62.438a1.687 1.687 0 1 0 0-3.375 1.687 1.687 0 0 0 0 3.374Z" fill="#F68820"/></g><g clip-path="url(#dk)"><path d="M28.125 64.688a1.125 1.125 0 1 0 0-2.25 1.125 1.125 0 0 0 0 2.25Z" fill="#F68820"/></g><g clip-path="url(#dl)"><path d="M30.375 21.375a5.625 5.625 0 1 0 0-11.25 5.625 5.625 0 0 0 0 11.25Z" fill="#F68820"/></g><g clip-path="url(#dm)"><path d="M28.688 15.75a1.687 1.687 0 1 0 0-3.375 1.687 1.687 0 0 0 0 3.375Z" fill="#FBBE18"/></g><g clip-path="url(#dn)"><path d="M41.625 25.875a3.375 3.375 0 1 0 0-6.75 3.375 3.375 0 0 0 0 6.75Z" fill="#F68820"/></g><g clip-path="url(#do)"><path d="M40.5 22.5a1.125 1.125 0 1 0 0-2.25 1.125 1.125 0 0 0 0 2.25Z" fill="#FBBE18"/></g><g clip-path="url(#dp)"><path d="M46.406 2.531c0 .776-1.406 3.094-1.406 3.094s-1.406-2.317-1.406-3.094a1.407 1.407 0 0 1 2.812 0Z" fill="#F68820"/></g><g clip-path="url(#dq)"><path d="M41.076 3.985c.672.39 1.976 2.765 1.976 2.765s-2.71.06-3.383-.328a1.408 1.408 0 0 1 1.407-2.437Z" fill="#F68820"/></g><g clip-path="url(#dr)"><path d="M39.668 9.328C40.34 8.94 43.05 9 43.05 9s-1.304 2.376-1.977 2.765a1.407 1.407 0 0 1-1.406-2.437Z" fill="#F68820"/></g><g clip-path="url(#ds)"><path d="M43.594 13.219c0-.776 1.406-3.094 1.406-3.094s1.406 2.318 1.406 3.094a1.407 1.407 0 0 1-2.812 0Z" fill="#F68820"/></g><g clip-path="url(#dt)"><path d="M48.926 11.765C48.253 11.375 46.949 9 46.949 9s2.71-.06 3.383.328a1.407 1.407 0 0 1-1.406 2.437Z" fill="#F68820"/></g><g clip-path="url(#du)"><path d="M50.332 6.422c-.673.388-3.383.328-3.383.328s1.304-2.376 1.977-2.765a1.408 1.408 0 0 1 1.406 2.437Z" fill="#F68820"/></g></g></g><defs><clipPath id="da"><path fill="#fff" d="M0 0h72v72H0z"/></clipPath><clipPath id="db"><path fill="#fff" transform="translate(12.37 1.125)" d="M0 0h47.262v69.75H0z"/></clipPath><clipPath id="dc"><path fill="#fff" transform="translate(12.37 32.625)" d="M0 0h47.262v38.25H0z"/></clipPath><clipPath id="dd"><path fill="#fff" transform="translate(29.25 32.625)" d="M0 0h30.381v38.25H0z"/></clipPath><clipPath id="de"><path fill="#fff" transform="translate(27 28.125)" d="M0 0h18v4.5H0z"/></clipPath><clipPath id="df"><path fill="#fff" transform="translate(36 28.125)" d="M0 0h9v4.5H0z"/></clipPath><clipPath id="dg"><path fill="#fff" transform="translate(18 52.732)" d="M0 0h36v13.643H0z"/></clipPath><clipPath id="dh"><path fill="#fff" transform="translate(18 52.732)" d="M0 0h36v13.643H0z"/></clipPath><clipPath id="di"><path fill="#fff" transform="translate(39.041 52.74)" d="M0 0h14.959v13.636H0z"/></clipPath><clipPath id="dj"><path fill="#fff" transform="translate(30.375 59.063)" d="M0 0h3.375v3.375H0z"/></clipPath><clipPath id="dk"><path fill="#fff" transform="translate(27 62.438)" d="M0 0h2.25v2.25H0z"/></clipPath><clipPath id="dl"><path fill="#fff" transform="translate(24.75 10.125)" d="M0 0h11.25v11.25H0z"/></clipPath><clipPath id="dm"><path fill="#fff" transform="translate(27 12.375)" d="M0 0h3.375v3.375H0z"/></clipPath><clipPath id="dn"><path fill="#fff" transform="translate(38.25 19.125)" d="M0 0h6.75v6.75H0z"/></clipPath><clipPath id="do"><path fill="#fff" transform="translate(39.375 20.25)" d="M0 0h2.25v2.25H0z"/></clipPath><clipPath id="dp"><path fill="#fff" transform="translate(43.594 1.125)" d="M0 0h2.813v4.5H0z"/></clipPath><clipPath id="dq"><path fill="#fff" transform="translate(38.967 3.796)" d="M0 0h4.085v2.957H0z"/></clipPath><clipPath id="dr"><path fill="#fff" transform="translate(38.965 8.997)" d="M0 0h4.086v2.957H0z"/></clipPath><clipPath id="ds"><path fill="#fff" transform="translate(43.594 10.125)" d="M0 0h2.813v4.5H0z"/></clipPath><clipPath id="dt"><path fill="#fff" transform="translate(46.95 8.997)" d="M0 0h4.087v2.957H0z"/></clipPath><clipPath id="du"><path fill="#fff" transform="translate(46.95 3.796)" d="M0 0h4.085v2.957H0z"/></clipPath></defs></svg><svg fill="none" viewBox="0 0 324 411" id="approdable--1" xmlns="http://www.w3.org/2000/svg"><path d="M.95 27.625C.95 12.368 13.316 0 28.573 0H295.98c15.257 0 27.625 12.368 27.625 27.625v355.252c0 15.257-12.368 27.625-27.625 27.625H28.574c-15.257 0-27.625-12.368-27.625-27.625V27.625Z" fill="#CFE4E7"/></svg><svg fill="none" viewBox="0 0 20 19" id="courses--actions--basket" xmlns="http://www.w3.org/2000/svg"><path d="M.5.633A.633.633 0 0 1 1.133 0h1.9a.633.633 0 0 1 .615.48l.513 2.053h14.706a.633.633 0 0 1 .622.75l-1.9 10.133a.633.633 0 0 1-.622.517h-11.4a.633.633 0 0 1-.622-.517L3.046 3.302 2.54 1.267H1.133A.633.633 0 0 1 .5.633ZM4.43 3.8l1.663 8.867h10.349L18.105 3.8H4.429Zm2.404 10.133a2.533 2.533 0 1 0 0 5.067 2.533 2.533 0 0 0 0-5.067Zm8.867 0a2.533 2.533 0 1 0 0 5.067 2.533 2.533 0 0 0 0-5.067ZM6.833 15.2a1.267 1.267 0 1 1 0 2.534 1.267 1.267 0 0 1 0-2.534Zm8.867 0a1.267 1.267 0 1 1 0 2.534 1.267 1.267 0 0 1 0-2.534Z" fill="#252B42"/></svg><svg fill="none" viewBox="0 0 17 12" id="courses--actions--favorite" xmlns="http://www.w3.org/2000/svg"><path d="M.5 6s3-5.5 8-5.5 8 5.5 8 5.5-3 5.5-8 5.5S.5 6 .5 6Zm8 3.5a3.5 3.5 0 1 0 0-7 3.5 3.5 0 0 0 0 7Z" fill="#000"/></svg><svg fill="none" viewBox="0 0 19 17" id="courses--actions--like" xmlns="http://www.w3.org/2000/svg"><path d="M9.5 3.953 8.136 2.557v-.001a3.738 3.738 0 0 0-5.334 0 3.875 3.875 0 0 0 0 5.438l6.475 6.557.223.225.222-.225 6.475-6.556a3.875 3.875 0 0 0 0-5.439 3.731 3.731 0 0 0-2.666-1.119v.313m-4.03 2.203 1.356-1.384.224.219m-1.58 1.165 1.355-1.383M9.5 3.953l1.356-1.383m2.675-.82a3.4 3.4 0 0 0-2.45 1.038m2.45-1.038a3.419 3.419 0 0 1 2.444 1.025L13.53 1.75Zm-2.45 1.038-.225-.218m.225.218-.225-.218M13.531.813a4.368 4.368 0 0 1 3.115 1.306 4.512 4.512 0 0 1 0 6.325L9.5 15.68 2.354 8.444a4.512 4.512 0 0 1 0-6.325 4.369 4.369 0 0 1 6.23 0v.001l.694.7.222.224.222-.224.694-.7v-.001A4.357 4.357 0 0 1 13.532.813Z" fill="#BDBDBD" stroke="#252B42" stroke-width=".625"/></svg><svg viewBox="0 0 17 13" id="courses--sales" xmlns="http://www.w3.org/2000/svg"><path fill="none" d="M-1-1h19v15H-1z"/><g fill="#737373"><path d="M1 8a.5.5 0 0 1 .5.5V11a1 1 0 0 0 1 1h12a1 1 0 0 0 1-1V8.5a.5.5 0 0 1 1 0V11a2 2 0 0 1-2 2h-12a2 2 0 0 1-2-2V8.5A.5.5 0 0 1 1 8z"/><path d="M8.146 10.854a.5.5 0 0 0 .708 0l3-3a.5.5 0 1 0-.708-.708L9 9.293V.5a.5.5 0 0 0-1 0v8.793L5.854 7.146a.5.5 0 1 0-.708.708l3 3z"/></g></svg><svg fill="none" viewBox="0 0 15 16" id="courses--star" xmlns="http://www.w3.org/2000/svg"><path d="M15 6.3H9.275L7.5.75 5.725 6.3H0l4.625 3.425-1.75 5.525L7.5 11.825l4.625 3.425L10.35 9.7 15 6.3Z" fill="#FFCE31"/></svg><svg viewBox="0 0 490 517" fill="none" id="front--1" xmlns="http://www.w3.org/2000/svg"><path d="M455.025 52.684C406.533 4.06 329.993.686 261.209.396 209.632.181 156.799.153 108.063 17.115 59.328 34.076 14.587 71.609 3.597 121.895-8.594 177.886 22.22 233.324 51.91 282.386l77.262 127.755c21.569 35.587 44.759 72.83 81.501 92.457 43.756 23.376 99.834 15.989 141.602-10.828 41.767-26.817 70.331-70.465 87.793-116.796 19.814-52.559 22.215-108.054 36.778-161.65 15.361-56.645 24.373-114.3-21.821-160.64Z" fill="#A5B4B4"/></svg><svg viewBox="0 0 211 275" fill="none" id="front--2" xmlns="http://www.w3.org/2000/svg"><path d="M1.285 109.128c-5.486 48.623 8.12 102.285 46.55 132.776 30.121 23.853 70.445 30.202 108.893 32.203 17.545.935 38.11-.336 48.116-14.736 9.378-13.474 4.736-31.792-.787-47.238-23.604-66.061-57.645-129.289-100.988-184.559C43.54-48.296 7.737 51.941 1.285 109.128Z" fill="#FC724D"/></svg><svg viewBox="0 0 109 114" fill="none" id="front--3" xmlns="http://www.w3.org/2000/svg"><path d="M11.407 93.35c15.173 18.7 43.4 25.385 65.4 15.558 44.43-19.841 41.373-91.858-6.621-106.005C20.166-11.89-20.533 54.02 11.407 93.349Z" fill="#F1E1D1"/></svg><svg viewBox="0 0 438 469" fill="none" id="front--4" xmlns="http://www.w3.org/2000/svg"><path d="M232.139 468.243a93.945 93.945 0 0 1-24.522-3.207c-42.668-11.501-70.52-51.025-93.279-87.174a2586.554 2586.554 0 0 1-78.847-134.076c-24.11-44.012-44.46-90.783-30.215-134.693 9.134-28.135 32.25-52.502 65.1-68.604 29.07-14.268 61.263-20.43 92.36-26.396C203.012 6.37 244.658-1.615 286.52 1.003c46.944 2.917 87.118 19.776 113.103 47.472 31.884 33.97 44.89 87.894 34.809 144.267l-1.725-.308 1.725.308c-5.523 30.857-18.042 59.132-30.158 86.464-6.611 14.914-13.447 30.332-19.102 46.06-16.289 45.34-36.638 78.487-64.04 104.313-21.362 20.15-54.136 38.664-88.993 38.664ZM270.025 3.985c-35.973 0-71.814 6.873-106.624 13.55-30.871 5.918-62.83 12.033-91.478 26.096-18.53 9.08-51.39 29.8-63.308 66.538-13.85 42.656 6.217 88.623 29.952 131.943a2545.573 2545.573 0 0 0 78.772 133.889c22.403 35.578 49.776 74.476 91.225 85.65 42.143 11.351 84.558-10.444 110.205-34.597 26.989-25.433 47.048-58.15 63.149-102.948 5.692-15.839 12.557-31.314 19.186-46.294 12.032-27.116 24.476-55.167 29.924-85.659 9.884-55.289-2.813-108.1-33.918-141.266-25.404-27.079-64.743-43.563-110.825-46.369-5.401-.374-10.831-.533-16.251-.533h-.009Z" fill="#DCDCDC"/></svg><svg viewBox="0 0 69 73" fill="none" id="front--5" xmlns="http://www.w3.org/2000/svg"><path d="M46.842 7.041C32.926 1.487 15.54 6.471 6.697 18.533-2.146 30.595-1.621 48.632 7.916 60.16c9.537 11.529 27.195 15.484 40.746 9.135 13.288-6.218 21.456-21.45 20.087-36.027C67.379 18.692 56.96 5.554 43.363.047" fill="#DCDCDC"/></svg><svg viewBox="0 0 115 101" fill="none" id="front--6" xmlns="http://www.w3.org/2000/svg"><path d="M38.002 4.555c-14.63 3.002-30.487 9.65-35.748 23.582-3.9 10.35-.694 22.291 5.627 31.399 6.32 9.107 15.285 15.895 24.128 22.6 8.13 6.133 16.44 12.352 26.06 15.718 9.622 3.366 20.95 3.469 29.409-2.198 6.827-4.581 10.915-12.202 14.066-19.776 6.171-14.708 19.806-50.127 7.887-65.163C96.396-5.73 55.378.974 38.001 4.555Z" fill="#0061FF"/></svg><svg fill="none" viewBox="0 0 20 20" id="testimonials--star" xmlns="http://www.w3.org/2000/svg"><path d="m5 12.137-1.367 5.918a.916.916 0 0 0 1.402.97l4.995-3.33 4.994 3.33a.918.918 0 0 0 1.392-1.014l-1.678-5.87 4.16-3.745a.917.917 0 0 0-.54-1.596l-5.23-.416-2.263-5.01a.916.916 0 0 0-1.67 0L6.93 6.385l-5.229.415a.917.917 0 0 0-.568 1.571L5 12.137ZM7.617 8.17a.915.915 0 0 0 .763-.537l1.65-3.652 1.65 3.652a.915.915 0 0 0 .763.537l3.643.29-3 2.7a.92.92 0 0 0-.269.933l1.15 4.023-3.427-2.285a.913.913 0 0 0-1.017 0l-3.581 2.387.963-4.17a.917.917 0 0 0-.253-.862L3.865 8.468l3.752-.299Z" fill="#F3CD03"/></svg><svg fill="none" viewBox="0 0 20 20" id="testimonials--star-active" xmlns="http://www.w3.org/2000/svg"><path d="M19.097 7.42a.918.918 0 0 0-.796-.62l-5.23-.416-2.262-5.009a.914.914 0 0 0-1.671 0l-2.263 5.01-5.23.415a.917.917 0 0 0-.567 1.57l3.864 3.768-1.367 5.918a.917.917 0 0 0 1.404.97l4.994-3.33 4.994 3.33a.918.918 0 0 0 1.392-1.015l-1.678-5.87 4.16-3.745a.919.919 0 0 0 .256-.976Z" fill="#F3CD03"/></svg><svg viewBox="0 0 24 24" id="video--fullscreen--enter" xmlns="http://www.w3.org/2000/svg"><path d="M4 2a2 2 0 0 0-2 2v4a1 1 0 0 0 2 0V4h4a1 1 0 0 0 0-2H4ZM20 2a2 2 0 0 1 2 2v4a1 1 0 1 1-2 0V4h-4a1 1 0 1 1 0-2h4ZM20 22a2 2 0 0 0 2-2v-4a1 1 0 1 0-2 0v4h-4a1 1 0 1 0 0 2h4ZM2 20a2 2 0 0 0 2 2h4a1 1 0 1 0 0-2H4v-4a1 1 0 1 0-2 0v4Z"/></svg><svg viewBox="0 0 24 24" id="video--fullscreen--exit" xmlns="http://www.w3.org/2000/svg"><path d="M7 9a2 2 0 0 0 2-2V3a1 1 0 0 0-2 0v4H3a1 1 0 0 0 0 2h4ZM17 9a2 2 0 0 1-2-2V3a1 1 0 1 1 2 0v4h4a1 1 0 1 1 0 2h-4ZM17 15a2 2 0 0 0-2 2v4a1 1 0 1 0 2 0v-4h4a1 1 0 1 0 0-2h-4ZM9 17a2 2 0 0 0-2-2H3a1 1 0 1 0 0 2h4v4a1 1 0 1 0 2 0v-4Z"/></svg><svg viewBox="-1 0 8 8" id="video--pause" xmlns="http://www.w3.org/2000/svg"><path d="M1 0a1 1 0 0 0-1 1v6a1 1 0 0 0 2 0V1a1 1 0 0 0-1-1m5 1v6a1 1 0 0 1-2 0V1a1 1 0 0 1 2 0" fill-rule="evenodd"/></svg><svg fill="none" viewBox="0 0 20 22" id="video--play" xmlns="http://www.w3.org/2000/svg"><path d="M18.54 12.703 3.428 21.727C2.146 22.49.5 21.565.5 20.023V1.976C.5.436 2.143-.493 3.428.275L18.54 9.298c.291.172.534.42.703.718a2.004 2.004 0 0 1 0 1.969 1.933 1.933 0 0 1-.703.718Z" fill="#fff"/></svg><svg viewBox="0 0 24 24" id="video--volume--down" xmlns="http://www.w3.org/2000/svg"><g fill="none"><path d="M4.9 9h4l5-6v18l-5-5h-5V9h1zM17.5 15a3 3 0 0 0 0-6"/></g></svg><svg viewBox="0 0 24 24" id="video--volume--mute" xmlns="http://www.w3.org/2000/svg"><path fill="none" d="M8 9h4l5-6v18l-5-5H7V9h1z"/></svg><svg viewBox="0 0 24 24" id="video--volume--off" xmlns="http://www.w3.org/2000/svg"><g fill="none"><path d="m3 3 18 18M9.9 5.5 12 3v18l-5-5H2V9h6M21.4 16a8.5 8.5 0 0 0 1.1-4.2c0-4.3-3.1-7.8-7-7.8M15.5 20.5a5.2 5.2 0 0 0 3-1M18.3 13a2.7 2.7 0 0 0 .2-1.1 2.9 2.9 0 0 0-3-2.9"/></g></svg><svg viewBox="0 0 24 24" id="video--volume--up" xmlns="http://www.w3.org/2000/svg"><g fill="none"><path d="M2.9 9h4l5-6v18l-5-5h-5V9h1zM15.5 19.5a7.3 7.3 0 0 0 7-7.5 7.3 7.3 0 0 0-7-7.5"/><path d="M15.5 15a3 3 0 0 0 0-6"/></g></svg></svg>