<?xml version="1.0" encoding="utf-8"?><svg viewBox="0 0 490 517" xmlns="http://www.w3.org/2000/svg" xmlns:xlink="http://www.w3.org/1999/xlink"><style>:root>svg{display:none}:root>svg:target{display:block}</style><svg viewBox="0 0 490 517" fill="none" id="front--1" xmlns="http://www.w3.org/2000/svg"><path d="M455.025 52.684C406.533 4.06 329.993.686 261.209.396 209.632.181 156.799.153 108.063 17.115 59.328 34.076 14.587 71.609 3.597 121.895-8.594 177.886 22.22 233.324 51.91 282.386l77.262 127.755c21.569 35.587 44.759 72.83 81.501 92.457 43.756 23.376 99.834 15.989 141.602-10.828 41.767-26.817 70.331-70.465 87.793-116.796 19.814-52.559 22.215-108.054 36.778-161.65 15.361-56.645 24.373-114.3-21.821-160.64Z" fill="#A5B4B4"/></svg><svg viewBox="0 0 211 275" fill="none" id="front--2" xmlns="http://www.w3.org/2000/svg"><path d="M1.285 109.128c-5.486 48.623 8.12 102.285 46.55 132.776 30.121 23.853 70.445 30.202 108.893 32.203 17.545.935 38.11-.336 48.116-14.736 9.378-13.474 4.736-31.792-.787-47.238-23.604-66.061-57.645-129.289-100.988-184.559C43.54-48.296 7.737 51.941 1.285 109.128Z" fill="#FC724D"/></svg><svg viewBox="0 0 109 114" fill="none" id="front--3" xmlns="http://www.w3.org/2000/svg"><path d="M11.407 93.35c15.173 18.7 43.4 25.385 65.4 15.558 44.43-19.841 41.373-91.858-6.621-106.005C20.166-11.89-20.533 54.02 11.407 93.349Z" fill="#F1E1D1"/></svg><svg viewBox="0 0 438 469" fill="none" id="front--4" xmlns="http://www.w3.org/2000/svg"><path d="M232.139 468.243a93.945 93.945 0 0 1-24.522-3.207c-42.668-11.501-70.52-51.025-93.279-87.174a2586.554 2586.554 0 0 1-78.847-134.076c-24.11-44.012-44.46-90.783-30.215-134.693 9.134-28.135 32.25-52.502 65.1-68.604 29.07-14.268 61.263-20.43 92.36-26.396C203.012 6.37 244.658-1.615 286.52 1.003c46.944 2.917 87.118 19.776 113.103 47.472 31.884 33.97 44.89 87.894 34.809 144.267l-1.725-.308 1.725.308c-5.523 30.857-18.042 59.132-30.158 86.464-6.611 14.914-13.447 30.332-19.102 46.06-16.289 45.34-36.638 78.487-64.04 104.313-21.362 20.15-54.136 38.664-88.993 38.664ZM270.025 3.985c-35.973 0-71.814 6.873-106.624 13.55-30.871 5.918-62.83 12.033-91.478 26.096-18.53 9.08-51.39 29.8-63.308 66.538-13.85 42.656 6.217 88.623 29.952 131.943a2545.573 2545.573 0 0 0 78.772 133.889c22.403 35.578 49.776 74.476 91.225 85.65 42.143 11.351 84.558-10.444 110.205-34.597 26.989-25.433 47.048-58.15 63.149-102.948 5.692-15.839 12.557-31.314 19.186-46.294 12.032-27.116 24.476-55.167 29.924-85.659 9.884-55.289-2.813-108.1-33.918-141.266-25.404-27.079-64.743-43.563-110.825-46.369-5.401-.374-10.831-.533-16.251-.533h-.009Z" fill="#DCDCDC"/></svg><svg viewBox="0 0 69 73" fill="none" id="front--5" xmlns="http://www.w3.org/2000/svg"><path d="M46.842 7.041C32.926 1.487 15.54 6.471 6.697 18.533-2.146 30.595-1.621 48.632 7.916 60.16c9.537 11.529 27.195 15.484 40.746 9.135 13.288-6.218 21.456-21.45 20.087-36.027C67.379 18.692 56.96 5.554 43.363.047" fill="#DCDCDC"/></svg><svg viewBox="0 0 115 101" fill="none" id="front--6" xmlns="http://www.w3.org/2000/svg"><path d="M38.002 4.555c-14.63 3.002-30.487 9.65-35.748 23.582-3.9 10.35-.694 22.291 5.627 31.399 6.32 9.107 15.285 15.895 24.128 22.6 8.13 6.133 16.44 12.352 26.06 15.718 9.622 3.366 20.95 3.469 29.409-2.198 6.827-4.581 10.915-12.202 14.066-19.776 6.171-14.708 19.806-50.127 7.887-65.163C96.396-5.73 55.378.974 38.001 4.555Z" fill="#0061FF"/></svg></svg>